<?xml version="1.0" encoding="utf-8"?>
<!-- Generator: Adobe Illustrator 27.1.1, SVG Export Plug-In . SVG Version: 6.00 Build 0)  -->
<svg version="1.1" id="レイヤー_1" xmlns="http://www.w3.org/2000/svg" xmlns:xlink="http://www.w3.org/1999/xlink" x="0px"
	 y="0px" viewBox="0 0 210.4 74.7" style="enable-background:new 0 0 210.4 74.7;" xml:space="preserve">
<style type="text/css">
	.st0{fill:#1D457F;}
	.st1{fill:#FFFFFF;}
</style>
<path class="st0" d="M204.2,49.4h-65.9c-3,0-5.5,2.5-5.5,5.5v14.2c0,3,2.5,5.5,5.5,5.5h65.9c3,0,5.5-2.5,5.5-5.5V54.9
	C209.7,51.9,207.3,49.4,204.2,49.4z"/>
<path class="st0" d="M35.8,23.9c0-0.6,0-1.2-0.2-1.8s-0.4-1-0.6-1.6c-0.2-0.4-0.6-0.8-1-1s-0.8-0.4-1.2-0.4s-1,0-1.6,0.2
	s-1.2,0.4-1.6,0.6c-0.4,0.2-1,0.6-1.6,1c-0.4,0.4-0.8,0.8-1.2,1.2v21.3h-8.7V24.1c0-0.6,0-1.2-0.2-1.8s-0.4-1-0.8-1.6
	c-0.4-0.4-0.6-0.8-1-1s-0.8-0.4-1.2-0.4s-1,0-1.6,0.2s-1,0.4-1.6,0.6c-0.6,0.2-1,0.6-1.6,1c-0.4,0.4-1,0.8-1.4,1.2v21.1H0V17.2
	L6.2,14h3v3.2c1.4-1,2.8-1.6,4.2-2.2c1.4-0.6,2.8-0.8,4.2-0.8c0.8,0,1.6,0,2.2,0.2c0.8,0.2,1.6,0.4,2.2,0.8c0.6,0.4,1.4,0.8,2,1.2
	s1.2,1,1.6,1.6c0.6-0.6,1.4-1,2.2-1.4c0.8-0.4,1.6-0.8,2.4-1.2s1.8-0.6,2.6-0.8c0.8-0.2,1.8-0.2,2.8-0.2c1.2,0,2.4,0.2,3.4,0.8
	c1.2,0.4,2,1.2,2.8,2s1.6,1.8,2,2.8c0.4,1.2,0.8,2.4,0.8,3.6v19.9h-8.7V23.9H35.8z"/>
<path class="st0" d="M64.8,44c-2.4,0-4.4-0.4-6.4-1.2c-2-0.8-3.6-1.8-5-3.2c-1.4-1.2-2.6-2.8-3.2-4.6c-1-1.8-1.4-3.6-1.4-5.8
	S49.2,25,50,23c0.8-1.8,2-3.4,3.2-4.8c1.4-1.4,3-2.4,5-3.2s4.2-1.2,6.4-1.2c2.4,0,4.4,0.4,6.4,1.2s3.6,1.8,5,3
	c1.4,1.2,2.6,2.8,3.4,4.6c0.8,1.8,1.2,3.8,1.2,5.8s-0.4,4.2-1.2,6c-0.8,1.8-2,3.6-3.2,5c-1.4,1.4-3.2,2.4-5,3.2
	C69.2,43.6,67,44,64.8,44z M65.8,40.4c0.8,0,1.6-0.2,2.2-0.8c0.6-0.4,1.2-1.2,1.8-2c0.4-0.8,0.8-1.8,1.2-3c0.2-1.2,0.4-2.4,0.4-3.6
	c0-1.8-0.2-3.6-0.4-5.2c-0.2-1.6-0.8-3-1.4-4.2c-0.6-1.2-1.4-2.2-2.4-2.8s-2.4-1.4-3.8-1.4c-0.8,0-1.4,0.2-2,0.8s-1.2,1.2-1.6,2
	s-0.8,1.8-1.2,3c-0.4,1.2-0.4,2.4-0.4,3.6c0,1.8,0.2,3.6,0.6,5.4c0.4,1.6,0.8,3.2,1.6,4.4c0.6,1.2,1.4,2.2,2.4,3
	C63.6,40,64.6,40.4,65.8,40.4z"/>
<path class="st0" d="M103.3,23.7c0-0.8,0-1.4-0.2-2s-0.4-1-0.6-1.4c-0.2-0.4-0.6-0.6-1-0.8s-0.8-0.4-1.2-0.4s-0.8,0-1.2,0.2
	s-1,0.4-1.6,0.6c-0.6,0.2-1.2,0.6-1.6,1c-0.6,0.4-1.2,0.8-1.6,1.4v21.1h-8.7V17.2l6.2-3.2h2.6v3c1.4-1,2.8-1.6,4.4-2.2
	c1.6-0.4,3-0.8,4.6-0.8c1.2,0,2.4,0.2,3.4,0.8c1,0.4,2,1.2,2.8,1.8c0.8,0.8,1.4,1.6,2,2.8c0.4,1,0.8,2.2,0.8,3.4v20.7h-8.9
	L103.3,23.7L103.3,23.7z"/>
<path class="st0" d="M132.8,44c-2.4,0-4.4-0.4-6.4-1.2c-2-0.8-3.6-1.8-5-3.2c-1.4-1.2-2.6-2.8-3.2-4.6c-0.8-1.8-1.2-3.8-1.2-5.8
	c0-2.2,0.4-4.2,1.2-6.2c0.8-1.8,2-3.4,3.2-4.8c1.4-1.4,3-2.4,5-3.2s4.2-1.2,6.4-1.2c2.4,0,4.4,0.4,6.4,1.2s3.6,1.8,5,3
	s2.6,2.8,3.4,4.6c0.8,1.8,1.2,3.8,1.2,5.8s-0.4,4.2-1.2,6c-0.8,1.8-2,3.6-3.2,5c-1.4,1.4-3.2,2.4-5,3.2
	C137.1,43.6,134.9,44,132.8,44z M133.8,40.4c0.8,0,1.6-0.2,2.2-0.8c0.6-0.4,1.2-1.2,1.8-2c0.4-0.8,0.8-1.8,1.2-3
	c0.2-1.2,0.4-2.4,0.4-3.6c0-1.8-0.2-3.6-0.4-5.2c-0.2-1.6-0.8-3-1.4-4.2c-0.6-1.2-1.4-2.2-2.4-2.8c-1-0.8-2.2-1-3.6-1
	c-0.8,0-1.4,0.2-2,0.8c-0.6,0.4-1.2,1.2-1.6,2c-0.4,0.8-0.8,1.8-1.2,3s-0.4,2.4-0.4,3.6c0,1.8,0.2,3.6,0.6,5.4
	c0.4,1.6,0.8,3.2,1.6,4.4c0.6,1.2,1.4,2.2,2.4,3C131.6,40,132.6,40.4,133.8,40.4z"/>
<path class="st0" d="M163.6,43.4h-8.7V3.2l6.2-3.2h2.6v43.4H163.6z"/>
<path class="st0" d="M172.1,4.6c0-0.6,0.2-1.2,0.4-1.6c0.2-0.6,0.6-1,1-1.4s1-0.6,1.6-0.8s1.2-0.4,1.8-0.4s1.2,0,1.8,0.4
	c0.6,0.2,1,0.6,1.6,0.8c0.4,0.4,0.8,0.8,1,1.4s0.4,1,0.4,1.6s-0.2,1.2-0.4,1.6c-0.2,0.4-0.6,1-1,1.4s-0.8,0.6-1.6,0.8
	c-0.6,0.2-1.2,0.4-1.8,0.4s-1.2,0-1.8-0.4c-0.6-0.2-1-0.6-1.6-0.8c-0.4-0.4-0.8-0.8-1-1.4C172.1,5.6,172.1,5.2,172.1,4.6z
	 M172.5,17.2l6.2-3.2h2.6v29.4h-8.8V17.2L172.5,17.2z"/>
<path class="st0" d="M192.4,35.4c0.4,1.6,1.2,2.8,2.2,3.8c1,0.8,2.2,1.2,3.6,1.2c0.6,0,1.2,0,1.6-0.2c0.4-0.2,1-0.4,1.2-0.6
	c0.4-0.2,0.6-0.6,0.8-1s0.4-0.8,0.4-1.2c0-0.6-0.2-1.2-0.4-1.8c-0.2-0.6-0.6-1-1-1.4s-1-0.8-1.6-1.2s-1.2-0.8-2-1
	c-1.2-0.4-2.2-1-3.4-1.6s-2.2-1.2-3-2s-1.6-1.6-2.2-2.6s-0.8-2-0.8-3.4c0-1.2,0.2-2.4,0.8-3.4c0.4-1,1.2-1.8,2.2-2.6
	c0.8-0.8,2-1.2,3.2-1.6s2.8-0.6,4.2-0.6s2.6,0.2,3.8,0.4s2,0.6,2.8,1.2c0.8,0.4,1.6,1.2,2.2,1.8s1.2,1.6,1.6,2.4l-5,1.8
	c-0.2-0.8-0.6-1.6-1-2.2c-0.4-0.6-0.8-0.8-1.2-1.2c-0.4-0.2-0.8-0.4-1.2-0.4s-0.8,0-1,0c-0.6,0-1,0-1.6,0.2
	c-0.4,0.2-0.8,0.4-1.2,0.6c-0.4,0.2-0.6,0.4-0.8,0.8c-0.2,0.4-0.4,0.8-0.4,1.2c0,0.6,0.2,1,0.4,1.6c0.4,0.4,0.6,1,1.2,1.4
	c0.6,0.4,1.2,0.8,1.8,1.2c0.8,0.4,1.4,0.8,2.2,1c1.2,0.4,2.4,1,3.6,1.6c1.2,0.6,2.2,1.2,3,2c0.8,0.8,1.6,1.6,2.2,2.6
	c0.6,1,0.8,2,0.8,3.2c0,1.2-0.2,2.4-0.6,3.6s-1.2,2-2,2.8c-1,0.8-2.2,1.4-3.6,2c-1.4,0.4-3.2,0.8-5.4,0.8c-1.8,0-3.4-0.2-4.6-0.6
	c-1.2-0.4-2.4-1-3.2-1.6s-1.6-1.4-2.2-2.2c-0.6-0.8-1-1.6-1.6-2.4L192.4,35.4z"/>
<g>
	<path class="st1" d="M150.3,58.8v8.8c0,0.2,0,0.5,0.1,0.7c0.1,0.2,0.2,0.4,0.4,0.6c0.2,0.2,0.4,0.3,0.6,0.4
		c0.2,0.1,0.5,0.1,0.7,0.1c0.1,0,0.3,0,0.5-0.1c0.2-0.1,0.4-0.2,0.5-0.3c0.2-0.1,0.4-0.3,0.5-0.5c0.2-0.2,0.3-0.4,0.5-0.6v-9.1h3.8
		v12.5h-3.8v-1.2c-0.5,0.4-1,0.8-1.6,1c-0.6,0.3-1.1,0.4-1.6,0.4c-0.6,0-1.2-0.1-1.7-0.3c-0.5-0.2-1-0.5-1.4-0.8
		c-0.4-0.4-0.7-0.8-0.9-1.2c-0.2-0.5-0.3-1-0.3-1.5v-8.8H150.3z"/>
	<path class="st1" d="M160.4,60.4v-0.9l2-0.7v-2.5l2.7-1.4h1.1v3.9h3.1v1.6h-3.1v8.1c0,0.3,0.1,0.5,0.2,0.7c0.1,0.2,0.3,0.3,0.5,0.3
		c0.1,0,0.3,0,0.4-0.1c0.2-0.1,0.3-0.2,0.5-0.3c0.1-0.1,0.3-0.2,0.4-0.4c0.1-0.1,0.2-0.2,0.2-0.3l1.3,1c-0.2,0.3-0.4,0.6-0.7,0.9
		c-0.3,0.3-0.5,0.5-0.9,0.7c-0.3,0.2-0.7,0.4-1.1,0.5c-0.4,0.1-0.9,0.2-1.5,0.2c-0.5,0-1-0.1-1.4-0.2c-0.4-0.1-0.7-0.4-1-0.6
		c-0.3-0.3-0.5-0.6-0.6-1s-0.2-0.8-0.2-1.2v-8.2H160.4z"/>
	<path class="st1" d="M171.9,54.5c0-0.3,0.1-0.5,0.2-0.7s0.3-0.4,0.4-0.6c0.2-0.2,0.4-0.3,0.6-0.4c0.2-0.1,0.5-0.1,0.8-0.1
		s0.6,0,0.8,0.1s0.5,0.2,0.7,0.4c0.2,0.2,0.3,0.4,0.4,0.6s0.2,0.5,0.2,0.7c0,0.3-0.1,0.5-0.2,0.7c-0.1,0.2-0.3,0.4-0.4,0.6
		c-0.2,0.2-0.4,0.3-0.7,0.4s-0.5,0.1-0.8,0.1s-0.6,0-0.8-0.1c-0.2-0.1-0.5-0.2-0.6-0.4c-0.2-0.2-0.3-0.4-0.4-0.6
		C171.9,55,171.9,54.7,171.9,54.5z M172,60l2.7-1.4h1.1v12.8H172V60z"/>
	<path class="st1" d="M183.3,71.4h-3.8V53.8l2.6-1.4h1.1V71.4z"/>
	<path class="st1" d="M188.2,67.9c0.2,0.7,0.5,1.2,0.9,1.6c0.4,0.4,0.9,0.6,1.5,0.6c0.3,0,0.5,0,0.7-0.1c0.2-0.1,0.4-0.2,0.6-0.3
		c0.2-0.1,0.3-0.3,0.4-0.4c0.1-0.2,0.1-0.3,0.1-0.5c0-0.3-0.1-0.6-0.2-0.8c-0.1-0.2-0.3-0.4-0.5-0.6c-0.2-0.2-0.4-0.4-0.7-0.5
		c-0.3-0.2-0.6-0.3-0.9-0.4c-0.5-0.2-1-0.5-1.5-0.7c-0.5-0.3-0.9-0.5-1.3-0.9c-0.4-0.3-0.7-0.7-0.9-1.1c-0.2-0.4-0.4-0.9-0.4-1.5
		c0-0.5,0.1-1,0.3-1.5s0.5-0.8,0.9-1.1c0.4-0.3,0.9-0.6,1.4-0.7s1.2-0.3,1.8-0.3c0.6,0,1.2,0.1,1.6,0.2c0.5,0.1,0.9,0.3,1.2,0.5
		c0.4,0.2,0.7,0.5,1,0.8c0.3,0.3,0.5,0.7,0.7,1l-2.2,0.8c-0.1-0.4-0.3-0.7-0.4-0.9c-0.2-0.2-0.3-0.4-0.5-0.5
		c-0.2-0.1-0.4-0.2-0.5-0.2c-0.2,0-0.3,0-0.5,0c-0.2,0-0.5,0-0.7,0.1c-0.2,0.1-0.4,0.1-0.6,0.2c-0.2,0.1-0.3,0.2-0.4,0.4
		c-0.1,0.1-0.1,0.3-0.1,0.5c0,0.2,0.1,0.5,0.2,0.7c0.1,0.2,0.3,0.4,0.5,0.6c0.2,0.2,0.5,0.4,0.8,0.5c0.3,0.2,0.6,0.3,1,0.5
		c0.5,0.2,1,0.5,1.5,0.7c0.5,0.3,0.9,0.6,1.3,0.9s0.7,0.7,0.9,1.1c0.2,0.4,0.4,0.9,0.4,1.4c0,0.5-0.1,1.1-0.3,1.5
		c-0.2,0.5-0.5,0.9-0.9,1.2c-0.4,0.4-0.9,0.6-1.6,0.8s-1.4,0.3-2.3,0.3c-0.8,0-1.4-0.1-2-0.3c-0.5-0.2-1-0.4-1.4-0.7
		c-0.4-0.3-0.7-0.6-0.9-0.9c-0.2-0.4-0.5-0.7-0.6-1L188.2,67.9z"/>
</g>
</svg>
